<?xml version="1.0" encoding="UTF-8"?> <svg xmlns="http://www.w3.org/2000/svg" id="Livello_1" data-name="Livello 1" viewBox="0 0 103.18 30.12"> <title>euromagroup-logo-negativo</title> <g> <path d="M121.83,34.62h-.65V23.27H123a3,3,0,0,1,2.21.66,3,3,0,0,1-2.21,5.3h-1.16v5.39ZM123,28.56a2.31,2.31,0,0,0,1.8-.62,2.53,2.53,0,0,0-.11-3.54,2.62,2.62,0,0,0-1.8-.45h-1.07v4.61Zm-3.78-5.29h.65v7.08a4.81,4.81,0,0,1-.69,3.1,3.58,3.58,0,0,1-5.57,0,4.75,4.75,0,0,1-.7-3.1V23.27h.65v6.87A5.06,5.06,0,0,0,114.1,33a3,3,0,0,0,4.6,0,5,5,0,0,0,.53-2.86V23.27Zm-7,5.68a5.34,5.34,0,1,1-10.63,0,5.34,5.34,0,1,1,10.63,0m-10,0a4.69,4.69,0,1,0,9.33,0,4.69,4.69,0,1,0-9.33,0m-.79,5.67h-.75l-3.35-5.37h-.32v5.37H96.4V23.27h1.27a3.51,3.51,0,0,1,2.34.57,3,3,0,0,1,1,2.44,2.71,2.71,0,0,1-2.94,3Zm-3.59-6a2.18,2.18,0,0,0,2.51-2.32,2.23,2.23,0,0,0-1.08-2.05A4.1,4.1,0,0,0,97.47,24h-.42v4.62Zm-2.26.59a5.36,5.36,0,0,1-1.07,3.78,5.15,5.15,0,0,1-3.9,1.83c-2.84,0-5.26-2.65-5.26-5.78a5.63,5.63,0,0,1,5.35-5.87,5.27,5.27,0,0,1,4.44,2.65l-.53.47a4.59,4.59,0,0,0-4-2.44c-2.51,0-4.65,2.42-4.65,5.15A5,5,0,0,0,90.7,34.1a4.66,4.66,0,0,0,3-1.25,4,4,0,0,0,1.25-3H91.29v-.68Zm-17,5.46H74.67l3.56-11.35h4.12L86,34.62H82.07l-.34-1.41H78.91Zm2.47-4.11-.44-2c-.11-.48-.18-1-.25-1.46h-.13l-.68,3.46Z" transform="translate(-23.48 -13.89)" fill="#fff"></path> <polygon points="0.53 9.39 6.82 9.39 7.42 12.49 4.28 12.49 4.28 13.57 7.15 13.57 7.15 16.52 4.28 16.52 4.28 17.64 7.53 17.64 6.93 20.74 0.53 20.74 0.53 9.39" fill="#fff"></polygon> <polygon points="39.74 9.39 43.57 9.39 45.03 15.05 46.5 9.39 50.29 9.39 51.98 20.74 48.38 20.74 47.8 14.52 45 20.74 42.34 14.52 41.68 20.74 38.08 20.74 39.74 9.39" fill="#fff"></polygon> <g> <path d="M40.87,23.27V30c0,3.32-1.88,4.82-4.75,4.82S31.38,33.3,31.38,30V23.27H35.1V29.6c0,.88,0,1.67,1,1.67s1-.79,1-1.67V23.27Z" transform="translate(-23.48 -13.89)" fill="#fff"></path> <path d="M41.4,23.27h4.5c2.31,0,4.27,1.09,4.27,3.94a2.66,2.66,0,0,1-2,3v.09a2.48,2.48,0,0,1,.63.68L51,34.62h-4.3L45.11,31H45v3.64H41.4Zm3.64,5h.26c.61,0,1.22-.11,1.22-.95s-.55-1-1.19-1H45V28.3Z" transform="translate(-23.48 -13.89)" fill="#fff"></path> <path d="M61.85,29a5.67,5.67,0,1,1-11.34,0,5.67,5.67,0,1,1,11.34,0M54.27,29a1.93,1.93,0,1,0,3.83,0,1.94,1.94,0,1,0-3.83,0" transform="translate(-23.48 -13.89)" fill="#fff"></path> </g> </g> <rect width="103.18" height="30.12" fill="none"></rect> </svg> 